HIERARCHY
ROOT Hips
{
 OFFSET 0.000000 0.000000 0.000000
 CHANNELS 6 Xposition Yposition Zposition Yrotation Xrotation Zrotation
 JOINT Chest
 {
  OFFSET 0.000000 10.354800 0.006500
  CHANNELS 3 Yrotation Xrotation Zrotation
  JOINT Chest2
  {
   OFFSET 0.000000 10.435800 -0.013200
   CHANNELS 3 Yrotation Xrotation Zrotation
   JOINT Chest3
   {
    OFFSET 0.000000 10.393700 0.000000
    CHANNELS 3 Yrotation Xrotation Zrotation
    JOINT Chest4
    {
     OFFSET 0.000000 10.383100 0.000000
     CHANNELS 3 Yrotation Xrotation Zrotation
     JOINT Neck
     {
      OFFSET 0.000000 15.694000 0.000000
      CHANNELS 3 Yrotation Xrotation Zrotation
      JOINT Head
      {
       OFFSET 0.000000 9.711000 -0.028000
       CHANNELS 3 Yrotation Xrotation Zrotation
       End Site
       {
        OFFSET 0.000000 18.578700 -0.014800
       }
      }
     }
     JOINT RightCollar
     {
      OFFSET -3.157200 10.367500 0.000000
      CHANNELS 3 Yrotation Xrotation Zrotation
      JOINT RightShoulder
      {
       OFFSET -14.482500 0.000000 0.000000
       CHANNELS 3 Yrotation Xrotation Zrotation
       JOINT RightElbow
       {
        OFFSET 0.000000 -31.707800 0.000000
        CHANNELS 3 Yrotation Xrotation Zrotation
        JOINT RightWrist
        {
         OFFSET 0.000000 -25.659300 0.000000
         CHANNELS 3 Yrotation Xrotation Zrotation
         End Site
         {
          OFFSET 0.000000 -18.994300 0.000000
         }
        }
       }
      }
     }
     JOINT LeftCollar
     {
      OFFSET 3.157200 10.367500 0.000000
      CHANNELS 3 Yrotation Xrotation Zrotation
      JOINT LeftShoulder
      {
       OFFSET 14.482500 0.000000 0.000000
       CHANNELS 3 Yrotation Xrotation Zrotation
       JOINT LeftElbow
       {
        OFFSET 0.000000 -31.707800 0.000000
        CHANNELS 3 Yrotation Xrotation Zrotation
        JOINT LeftWrist
        {
         OFFSET 0.000000 -25.659300 0.000000
         CHANNELS 3 Yrotation Xrotation Zrotation
         End Site
         {
          OFFSET 0.000000 -18.994300 0.000000
         }
        }
       }
      }
     }
    }
   }
  }
 }
 JOINT RightHip
 {
  OFFSET -8.365600 -0.032100 -0.003200
  CHANNELS 3 Yrotation Xrotation Zrotation
  JOINT RightKnee
  {
   OFFSET 0.000000 -43.980000 0.003100
   CHANNELS 3 Yrotation Xrotation Zrotation
   JOINT RightAnkle
   {
    OFFSET 0.000000 -42.882800 0.005200
    CHANNELS 3 Yrotation Xrotation Zrotation
    JOINT RightToe
    {
     OFFSET 0.000000 -4.915500 10.826300
     CHANNELS 3 Yrotation Xrotation Zrotation
     End Site
     {
      OFFSET 0.000000 -1.517500 6.175900
     }
    }
   }
  }
 }
 JOINT LeftHip
 {
  OFFSET 8.365600 -0.032100 -0.003200
  CHANNELS 3 Yrotation Xrotation Zrotation
  JOINT LeftKnee
  {
   OFFSET 0.000000 -43.980000 0.003100
   CHANNELS 3 Yrotation Xrotation Zrotation
   JOINT LeftAnkle
   {
    OFFSET 0.000000 -42.882800 0.005200
    CHANNELS 3 Yrotation Xrotation Zrotation
    JOINT LeftToe
    {
     OFFSET 0.000000 -4.915500 10.826300
     CHANNELS 3 Yrotation Xrotation Zrotation
     End Site
     {
      OFFSET 0.000000 -1.517500 6.175900
     }
    }
   }
  }
 }
}
MOTION
Frames: 13
Frame Time: 0.008333
0.000000 91.618600 0.000000 0.000000 -5.767877 0.000000 0.000000 11.653817 0.000000 0.000000 -5.885947 0.000000 0.000000 -0.000000 0.000000 0.000000 -0.000000 0.000000 0.000000 12.528835 0.000000 0.000000 0.711642 0.000000 0.000000 -0.000000 0.000000 0.000000 0.000000 -90.000000 0.000000 -2.309062 0.000000 0.000000 2.309062 0.000000 0.000000 -0.000000 0.000000 0.000000 -0.000000 90.000000 0.000000 -2.309062 0.000000 0.000000 2.309062 0.000000 0.000000 8.520406 0.000000 0.000000 1.905762 0.000000 -0.000000 -4.658285 0.000000 0.000000 -0.000000 0.000000 0.000000 8.520406 0.000000 0.000000 1.905762 0.000000 -0.000000 -4.658285 0.000000 0.000000 -0.000000 0.000000
-11.188988 147.229963 20.918627 177.029858 -17.964966 -4.006126 -1.879196 12.688755 3.563409 -0.182767 1.028466 0.317651 -0.313787 1.773322 0.536873 -1.731155 11.500882 3.388554 -1.504271 18.925598 -1.944980 -1.134356 -5.791337 -1.726137 2.031334 4.101373 -4.628100 17.752141 -9.266822 -7.663487 61.534563 -43.993554 -48.491509 -4.815555 4.701370 -18.303946 -3.962798 5.732564 -0.392419 -14.403126 -22.812175 6.381769 -48.958250 -32.913383 42.577231 -13.895126 5.325567 11.520839 11.111570 -57.136867 -6.657964 -154.602081 73.262269 -147.886280 -0.899202 -27.980906 1.688067 0.039131 -0.154508 0.012787 -15.231383 -56.634226 13.103699 147.539361 73.848076 142.358545 0.181313 -28.013452 -1.338724 0.017885 0.124345 0.019577
-9.302703 140.622408 20.861596 177.046118 -17.964708 -4.084943 -1.875604 12.682221 3.640717 -0.180231 1.015735 0.318229 -0.306860 1.742345 0.536757 -1.732791 11.481177 3.387971 -1.508195 18.950054 -1.949157 -1.126916 -5.803183 -1.730773 2.038790 4.111384 -4.604280 17.725478 -9.230805 -7.638901 61.446989 -44.010458 -48.444938 -4.834460 4.582074 -18.346183 -4.008784 5.752340 -0.422716 -14.260226 -22.855972 6.297173 -48.724710 -32.847830 42.379065 -13.710783 5.066808 11.734790 10.980027 -57.160784 -6.526804 -154.643416 73.247277 -147.922986 -0.876060 -28.062943 1.679323 0.020871 -0.084604 0.009467 -15.334749 -56.606965 13.220016 147.529453 73.857671 142.349973 0.193847 -27.945800 -1.336264 0.002790 0.065387 0.001266
-7.753767 135.180444 20.814509 177.058314 -17.961278 -4.123278 -1.876976 12.670162 3.678450 -0.181100 1.014881 0.317376 -0.305936 1.726655 0.536567 -1.735364 11.497297 3.387248 -1.495396 18.909513 -1.950967 -1.130114 -5.781876 -1.731217 2.054286 4.070157 -4.585610 17.708322 -9.189376 -7.626904 61.343590 -44.054567 -48.389630 -4.844152 4.443984 -18.413995 -4.043928 5.709731 -0.450832 -14.112548 -22.896345 6.210591 -48.458529 -32.798435 42.148550 -13.468069 4.784282 11.995222 10.911083 -57.178408 -6.466610 -154.696512 73.236952 -147.974142 -0.874381 -28.101727 1.673344 0.018021 -0.055018 0.008176 -15.374729 -56.593164 13.265268 147.510227 73.866802 142.335854 0.191884 -27.917597 -1.335875 0.000219 0.037242 0.000099
-6.633441 131.250562 20.779224 177.069606 -17.963540 -4.158769 -1.880160 12.644178 3.714149 -0.181766 1.034124 0.314549 -0.307637 1.710705 0.537212 -1.733556 11.479614 3.385205 -1.488234 18.902059 -1.954389 -1.121420 -5.808821 -1.736813 2.061311 4.074042 -4.569040 17.693900 -9.159926 -7.614294 61.223840 -44.109835 -48.316986 -4.864783 4.262992 -18.515920 -4.085610 5.699003 -0.481897 -13.958485 -22.928019 6.119972 -48.138115 -32.789999 41.875896 -13.194324 4.493037 12.280678 10.838507 -57.187012 -6.409751 -154.754945 73.227176 -148.034714 -0.857589 -28.151047 1.669780 0.005457 -0.019333 0.002477 -15.381369 -56.570896 13.286195 147.487036 73.884412 142.331413 0.187415 -27.896827 -1.340477 0.001720 0.013429 0.000781
-5.927689 128.768157 20.756947 177.072585 -17.959803 -4.167726 -1.881929 12.636980 3.723038 -0.182239 1.018554 0.316000 -0.311221 1.702440 0.535854 -1.738742 11.413964 3.387778 -1.481091 18.941186 -1.963271 -1.110231 -5.836843 -1.746033 2.067751 4.154297 -4.567174 17.679911 -9.175368 -7.583266 61.082034 -44.154756 -48.217763 -4.895156 4.041194 -18.646418 -4.120693 5.736963 -0.526762 -13.799909 -22.950246 6.024218 -47.762005 -32.826242 41.573287 -12.938113 4.195083 12.558470 10.810747 -57.193503 -6.414950 -154.870584 73.234584 -148.139446 -0.847299 -28.170197 1.651333 0.002038 -0.011810 0.000925 -15.382886 -56.566790 13.291880 147.502708 73.894495 142.347505 0.191884 -27.890722 -1.337429 0.001666 0.004560 0.000757
-5.538893 127.402819 20.743954 177.069930 -17.956452 -4.172132 -1.883730 12.614774 3.730064 -0.191605 0.992193 0.315725 -0.305634 1.718000 0.532830 -1.740648 11.391900 3.387490 -1.467567 18.891508 -1.969586 -1.106857 -5.785632 -1.748911 2.085596 4.155852 -4.549298 17.645650 -9.180657 -7.518177 60.921594 -44.173115 -48.084933 -4.930732 3.789029 -18.795639 -4.150412 5.734646 -0.567135 -13.635950 -22.965108 5.924556 -47.378564 -32.875986 41.278877 -12.712450 3.886312 12.808215 10.804173 -57.200057 -6.412372 -154.901844 73.231813 -148.165987 -0.846602 -28.183768 1.652414 0.003915 -0.007428 0.001778 -15.372411 -56.564108 13.291374 147.556421 73.907946 142.398378 0.206711 -27.891777 -1.331426 0.000018 -0.001421 0.000008
-5.352937 126.752372 20.737670 177.058282 -17.948733 -4.172570 -1.891138 12.573839 3.732318 -0.179791 1.013867 0.313918 -0.310760 1.696362 0.532130 -1.739246 11.383196 3.386573 -1.460478 18.854306 -1.974691 -1.096932 -5.776425 -1.757988 2.139639 4.086378 -4.517579 17.596955 -9.096162 -7.465966 60.721191 -44.236309 -47.944611 -4.969107 3.519940 -18.950607 -4.177386 5.722104 -0.603957 -13.463551 -22.974226 5.819417 -47.032761 -32.907464 41.020846 -12.491899 3.567153 13.019222 10.809354 -57.211229 -6.412867 -154.923923 73.228876 -148.182757 -0.845291 -28.193513 1.648036 0.005907 -0.004447 0.002682 -15.309910 -56.561348 13.254206 147.520346 73.925340 142.388262 0.203296 -27.898647 -1.331294 0.001412 0.001569 0.000641
-5.276737 126.485410 20.736317 177.039080 -17.930294 -4.165810 -1.876588 12.548851 3.731998 -0.181571 1.006127 0.313874 -0.316155 1.682161 0.531598 -1.743165 11.345892 3.386499 -1.451369 18.851028 -1.982476 -1.083168 -5.797918 -1.771210 2.170994 4.094353 -4.501229 17.572273 -9.078095 -7.406726 60.495884 -44.301941 -47.785585 -5.009080 3.252236 -19.095164 -4.198435 5.730230 -0.641032 -13.281680 -22.977684 5.709612 -46.727514 -32.919560 40.794813 -12.263428 3.246114 13.190470 10.832866 -57.235292 -6.432491 -154.965085 73.227701 -148.221210 -0.840312 -28.198756 1.645669 0.003811 -0.003172 0.001730 -15.280328 -56.576294 13.245842 147.509761 73.932835 142.383843 0.198654 -27.893870 -1.334304 0.001422 -0.000261 0.000646
-5.249027 126.392583 20.734194 177.034826 -17.923212 -4.166057 -1.890822 12.519671 3.731626 -0.187585 0.971511 0.312642 -0.297885 1.730486 0.530350 -1.755461 11.271658 3.386948 -1.439893 18.863998 -1.992554 -1.071057 -5.802365 -1.781961 2.203490 4.120587 -4.481774 17.551859 -9.047458 -7.361016 60.257276 -44.396258 -47.627280 -5.049821 3.001560 -19.212547 -4.202751 5.785401 -0.665002 -13.100207 -23.005797 5.594454 -46.459187 -32.925357 40.587466 -12.033477 2.933450 13.333321 10.820697 -57.247372 -6.426480 -154.987738 73.225487 -148.249467 -0.837624 -28.201184 1.642887 0.003064 -0.003912 0.001391 -15.275732 -56.580534 13.246412 147.520489 73.939425 142.392652 0.201438 -27.887554 -1.333350 0.001141 -0.004146 0.000518
-5.240773 126.364900 20.733283 177.030916 -17.911211 -4.160839 -1.896972 12.484875 3.725721 -0.184488 0.979377 0.313272 -0.300921 1.708677 0.527569 -1.760732 11.240002 3.387885 -1.430615 18.858483 -2.002803 -1.058937 -5.808400 -1.794869 2.221680 4.160409 -4.470331 17.540242 -9.037541 -7.327495 60.022563 -44.509625 -47.485070 -5.092861 2.776564 -19.287435 -4.210054 5.825701 -0.685746 -12.904307 -23.026135 5.481422 -46.228371 -32.933809 40.392153 -11.803574 2.629325 13.460474 10.801523 -57.265127 -6.426261 -155.016820 73.220251 -148.282951 -0.827085 -28.206355 1.627658 0.005072 -0.005128 0.002302 -15.241128 -56.586742 13.219245 147.527987 73.954948 142.397569 0.211408 -27.888809 -1.318775 -0.003988 -0.003355 -0.001811
-5.238477 126.357996 20.731437 177.023316 -17.905187 -4.152334 -1.900808 12.452193 3.720762 -0.180803 0.989911 0.311173 -0.313739 1.641911 0.527661 -1.757975 11.253004 3.383737 -1.420571 18.851628 -2.016184 -1.054142 -5.772539 -1.797152 2.240467 4.201327 -4.459097 17.529996 -9.012332 -7.316832 59.798283 -44.647520 -47.366550 -5.135801 2.582911 -19.312467 -4.226870 5.832364 -0.718346 -12.683358 -23.001045 5.372991 -46.026164 -32.953601 40.201100 -11.574452 2.331639 13.582354 10.794515 -57.276575 -6.431813 -155.051920 73.214974 -148.322115 -0.820827 -28.209014 1.619054 0.006010 -0.005907 0.002728 -15.162924 -56.584258 13.158379 147.496065 73.972620 142.386269 0.212535 -27.896213 -1.310463 -0.004337 0.000966 -0.001969
-5.236786 126.356462 20.729294 177.013706 -17.900800 -4.146884 -1.915649 12.400356 3.718181 -0.170585 1.003871 0.308053 -0.309983 1.655411 0.525741 -1.767086 11.203423 3.385214 -1.411168 18.883446 -2.028504 -1.032295 -5.842224 -1.827759 2.271836 4.210115 -4.428200 17.491938 -8.963082 -7.285629 59.615228 -44.752587 -47.278305 -5.172177 2.427967 -19.289876 -4.240404 5.834508 -0.751231 -12.450348 -22.965749 5.263043 -45.843575 -32.989043 40.005143 -11.345195 2.047696 13.706478 10.789440 -57.284748 -6.435323 -155.093701 73.213531 -148.364362 -0.816993 -28.209346 1.612920 0.006345 -0.005382 0.002881 -15.126056 -56.581071 13.140386 147.513328 73.986004 142.403688 0.209165 -27.900914 -1.301373 -0.003991 0.000140 -0.001812
